<?xml version="1.0" standalone="no"?>
<!DOCTYPE svg PUBLIC "-//W3C//DTD SVG 20010904//EN"
 "http://www.w3.org/TR/2001/REC-SVG-20010904/DTD/svg10.dtd">
<svg version="1.0" xmlns="http://www.w3.org/2000/svg"
 width="992.000000pt" height="231.000000pt" viewBox="0 0 992.000000 231.000000"
 preserveAspectRatio="xMidYMid meet">

<g transform="translate(0.000000,231.000000) scale(0.100000,-0.100000)"
fill="#000000" stroke="none">
<path d="M1070 2192 c-24 -9 -893 -582 -918 -605 -52 -48 -49 -138 6 -189 34
-32 878 -588 912 -601 19 -7 33 -6 52 4 15 8 225 145 467 304 406 267 443 293
462 333 26 53 20 100 -19 142 -30 32 -895 604 -927 613 -11 3 -27 3 -35 -1z
m-287 -395 c-4 -8 -37 -59 -73 -115 l-65 -102 -77 0 c-43 0 -78 2 -78 5 0 4
292 225 298 225 2 0 -1 -6 -5 -13z m770 -104 c75 -57 137 -105 137 -108 0 -3
-35 -5 -78 -5 l-77 0 -36 58 c-20 31 -53 83 -73 116 -44 68 -50 70 127 -61z
m-553 -3 l0 -110 -70 0 c-40 0 -70 4 -70 10 0 10 130 210 137 210 1 0 3 -49 3
-110z m259 3 c33 -51 61 -97 61 -103 0 -6 -28 -10 -70 -10 l-70 0 0 112 c0 64
4 108 9 103 4 -6 36 -51 70 -102z m-545 -397 c36 -57 66 -106 66 -110 0 -5
-256 180 -284 205 -6 5 25 9 71 9 l81 0 66 -104z m286 -8 c0 -61 -2 -109 -4
-107 -1 2 -35 52 -75 112 l-71 107 75 0 75 0 0 -112z m259 5 c-40 -60 -74
-110 -75 -112 -2 -2 -4 46 -4 107 l0 112 75 0 75 0 -71 -107z m426 98 c-27
-24 -285 -210 -285 -205 0 4 30 53 67 110 l66 104 81 0 c46 0 76 -4 71 -9z"/>
<path d="M2427 1633 c-21 -301 -38 -558 -37 -570 0 -22 3 -23 90 -23 l89 0 5
33 c3 17 12 163 21 322 8 160 18 324 22 365 l6 75 24 -80 c13 -44 72 -221 131
-393 l107 -313 74 3 74 3 65 175 c35 96 99 274 142 395 58 161 80 213 84 195
2 -14 7 -90 10 -170 3 -80 11 -250 17 -377 l12 -233 99 0 99 0 -5 33 c-3 17
-20 274 -38 570 l-32 537 -112 0 c-97 0 -113 -2 -119 -17 -31 -78 -219 -599
-244 -678 -18 -55 -35 -107 -38 -115 -3 -8 -22 44 -44 115 -21 72 -83 256
-138 410 l-99 280 -114 3 -113 3 -38 -548z"/>
<path d="M6540 1610 l0 -570 85 0 85 0 0 41 0 41 39 -31 c64 -51 107 -65 201
-65 71 -1 94 4 142 26 156 73 239 234 226 441 -16 242 -164 390 -376 375 -69
-5 -137 -32 -179 -71 l-23 -20 0 201 0 202 -100 0 -100 0 0 -570z m468 81 c47
-24 66 -45 92 -103 61 -138 21 -320 -84 -379 -87 -49 -205 -17 -254 69 -19 35
-22 54 -22 160 0 66 4 132 9 145 14 37 72 98 106 113 43 19 110 17 153 -5z"/>
<path d="M9110 1610 l0 -570 95 0 95 0 0 153 c0 146 1 155 23 175 l22 21 124
-175 124 -174 114 0 c62 0 113 2 113 5 0 3 -60 85 -133 183 -73 97 -150 201
-171 230 l-38 53 23 29 c13 16 84 92 158 170 l133 140 -119 0 -120 0 -124
-146 -124 -146 -3 311 -2 311 -95 0 -95 0 0 -570z"/>
<path d="M4668 2013 l-78 -24 0 -70 0 -69 -60 0 -60 0 0 -75 0 -75 59 0 60 0
3 -257 c4 -268 5 -278 51 -346 25 -37 88 -67 151 -74 54 -6 162 12 171 28 4 5
3 41 -1 79 l-7 70 -52 -6 c-70 -8 -99 0 -113 31 -8 17 -12 100 -12 250 l0 225
100 0 100 0 0 75 0 75 -100 0 -100 0 0 95 c0 110 7 106 -112 68z"/>
<path d="M3943 1856 c-58 -19 -104 -49 -151 -100 -84 -91 -116 -191 -110 -345
3 -93 7 -114 34 -171 74 -155 223 -232 418 -215 76 6 202 38 220 55 4 4 0 40
-10 79 -15 56 -22 70 -34 65 -60 -25 -117 -36 -195 -37 -97 -2 -145 15 -192
65 -27 29 -53 89 -53 123 l0 25 263 2 262 3 -1 100 c-1 134 -26 198 -104 277
-43 43 -69 60 -110 72 -64 19 -179 20 -237 2z m187 -155 c37 -20 80 -88 80
-128 l0 -23 -171 0 -170 0 6 23 c14 46 61 111 95 128 44 24 116 24 160 0z"/>
<path d="M5410 1849 c-25 -11 -60 -34 -77 -52 l-33 -31 0 42 0 42 -85 0 -85 0
0 -405 0 -405 94 0 94 0 4 253 c3 248 3 253 29 302 34 68 85 97 157 92 l53 -4
-3 91 -3 91 -50 3 c-34 1 -65 -5 -95 -19z"/>
<path d="M5893 1850 c-229 -75 -337 -365 -227 -610 87 -193 321 -271 529 -176
140 64 225 210 225 386 0 177 -85 322 -227 387 -79 36 -212 42 -300 13z m231
-168 c131 -89 133 -360 4 -465 -39 -31 -111 -46 -163 -33 -41 10 -101 72 -125
127 -25 60 -30 182 -10 245 47 145 182 202 294 126z"/>
<path d="M7620 1854 c-71 -19 -140 -52 -140 -68 0 -11 40 -136 43 -136 1 0 28
13 59 29 142 72 281 40 295 -68 l6 -41 -60 0 c-75 0 -203 -32 -259 -65 -54
-32 -108 -94 -122 -144 -22 -70 -15 -153 16 -212 67 -129 257 -167 396 -79 26
17 49 30 51 30 3 0 5 -13 5 -30 l0 -30 91 0 c90 0 91 0 85 23 -4 12 -9 144
-12 292 -7 328 -13 357 -87 431 -39 39 -66 56 -106 68 -67 20 -187 20 -261 0z
m268 -498 c-4 -83 -20 -114 -78 -153 -48 -33 -132 -32 -165 2 -49 48 -28 151
38 187 29 16 122 36 171 37 l38 1 -4 -74z"/>
<path d="M8540 1854 c-25 -9 -62 -29 -82 -45 -20 -16 -39 -29 -42 -29 -3 0 -6
16 -6 35 l0 35 -87 0 -88 0 3 -405 2 -405 95 0 95 0 0 258 c0 255 0 259 25
308 44 87 127 122 207 86 35 -15 50 -30 67 -64 20 -42 21 -59 21 -316 l0 -272
95 0 95 0 0 284 c0 254 -2 291 -20 347 -38 123 -127 190 -260 196 -51 2 -89
-2 -120 -13z"/>
<path d="M143 1262 c-29 -19 -33 -70 -33 -477 0 -459 2 -473 64 -518 l31 -22
887 0 c881 0 887 0 915 21 64 47 64 43 61 532 -3 426 -4 444 -22 458 -43 31
-66 19 -452 -235 -209 -137 -397 -258 -419 -270 -57 -30 -117 -28 -181 8 -28
17 -217 138 -418 270 -359 236 -397 256 -433 233z m515 -522 c354 -213 388
-226 500 -197 52 14 132 57 369 198 166 100 307 178 312 174 16 -9 15 -437 -1
-453 -17 -17 -1479 -17 -1496 0 -9 9 -12 73 -12 228 0 204 2 230 21 230 4 0
143 -81 307 -180z"/>
<path d="M7360 760 l0 -119 -36 24 c-47 32 -133 35 -180 6 -99 -61 -133 -215
-71 -326 58 -102 193 -124 269 -43 l28 30 0 -36 c0 -34 1 -36 35 -36 l35 0 0
310 0 310 -40 0 -40 0 0 -120z m-38 -159 c32 -28 33 -33 36 -113 3 -70 0 -88
-18 -116 -38 -61 -121 -75 -170 -29 -48 44 -65 143 -36 211 33 79 126 102 188
47z"/>
<path d="M7730 570 l0 -310 40 0 40 0 0 140 c0 157 9 189 60 215 59 31 117 9
141 -52 5 -13 9 -87 9 -164 l0 -139 41 0 41 0 -4 158 c-3 127 -8 164 -23 196
-24 50 -67 76 -128 76 -51 0 -78 -10 -114 -43 l-23 -20 0 126 0 127 -40 0 -40
0 0 -310z"/>
<path d="M9390 758 l0 -121 -25 23 c-21 20 -39 25 -93 28 -58 3 -72 0 -102
-20 -99 -67 -127 -226 -60 -336 55 -90 188 -106 262 -32 l28 28 0 -34 c0 -32
2 -34 35 -34 l35 0 0 310 0 310 -40 0 -40 0 0 -122z m-34 -162 c33 -33 34 -36
34 -119 0 -77 -3 -89 -25 -116 -14 -16 -41 -35 -60 -41 -30 -10 -41 -9 -72 7
-20 10 -45 29 -55 43 -28 38 -34 121 -14 175 23 60 57 85 113 85 38 0 50 -5
79 -34z"/>
<path d="M3821 861 c-20 -5 -27 -20 -47 -101 -13 -52 -24 -96 -24 -97 0 -2 11
-3 24 -3 20 0 28 11 55 78 52 133 52 140 -8 123z"/>
<path d="M2423 808 c13 -24 56 -102 95 -174 l72 -130 0 -122 0 -122 35 0 35 0
0 125 c0 92 4 132 14 148 8 12 53 88 100 170 l85 147 -44 0 -44 0 -71 -140
-71 -140 -70 140 -70 140 -45 0 -46 0 25 -42z"/>
<path d="M4789 829 c-17 -33 3 -69 39 -69 33 0 52 16 52 45 0 29 -19 45 -52
45 -18 0 -31 -7 -39 -21z"/>
<path d="M2925 667 c-136 -77 -139 -310 -3 -387 99 -56 233 -19 285 80 21 39
24 56 21 126 -2 68 -7 87 -31 122 -37 57 -90 82 -169 82 -47 0 -73 -6 -103
-23z m170 -51 c33 -21 58 -83 58 -141 0 -165 -167 -227 -234 -87 -27 55 -23
148 7 190 43 58 114 74 169 38z"/>
<path d="M3320 543 c0 -82 5 -166 11 -187 30 -109 167 -138 256 -54 l23 21 0
-31 c0 -30 2 -32 35 -32 l35 0 0 215 0 215 -40 0 -40 0 0 -151 0 -151 -34 -34
c-44 -44 -100 -48 -137 -8 -23 24 -24 32 -27 185 l-3 159 -40 0 -39 0 0 -147z"/>
<path d="M3918 683 c-2 -5 -2 -101 0 -215 l3 -208 34 0 35 0 0 118 c0 64 5
134 11 156 14 51 53 86 95 86 32 0 34 2 34 35 0 34 -1 35 -37 35 -29 0 -43 -8
-75 -40 l-38 -41 0 41 c0 38 -2 40 -29 40 -17 0 -31 -3 -33 -7z"/>
<path d="M4255 667 c-59 -33 -95 -108 -95 -199 0 -172 124 -250 318 -201 31 7
29 59 -3 56 -116 -14 -131 -14 -165 4 -40 21 -80 75 -80 109 l0 24 151 0 151
0 -4 53 c-5 67 -35 125 -78 155 -46 31 -139 31 -195 -1z m144 -42 c25 -13 36
-31 55 -87 5 -16 -5 -18 -110 -18 -115 0 -115 0 -109 23 23 79 98 117 164 82z"/>
<path d="M4797 683 c-4 -3 -7 -100 -7 -215 l0 -208 40 0 40 0 0 215 0 215 -33
0 c-19 0 -37 -3 -40 -7z"/>
<path d="M4990 476 l0 -216 40 0 40 0 0 151 0 151 34 34 c45 45 95 47 137 5
l29 -29 0 -156 0 -156 40 0 40 0 0 148 c0 173 -8 210 -56 251 -30 27 -42 31
-92 31 -61 0 -116 -25 -130 -58 -5 -13 -8 -8 -12 18 -4 31 -9 35 -37 38 l-33
3 0 -215z"/>
<path d="M5720 671 c-101 -53 -136 -220 -70 -329 52 -86 188 -105 257 -35 l26
25 -5 -62 c-4 -52 -9 -66 -35 -92 -39 -39 -108 -48 -178 -25 l-46 16 -10 -26
c-11 -30 -4 -37 51 -53 89 -25 197 -3 247 51 42 46 47 74 51 317 l4 233 -34
-3 c-28 -3 -33 -7 -36 -31 l-3 -28 -35 31 c-30 26 -42 30 -92 30 -37 0 -70 -7
-92 -19z m156 -52 c37 -19 54 -61 54 -139 0 -86 -16 -121 -66 -145 -96 -45
-188 47 -169 171 15 104 96 154 181 113z"/>
<path d="M6215 676 c-72 -32 -115 -111 -115 -208 1 -105 43 -172 129 -203 55
-19 86 -19 144 1 107 36 162 160 126 287 -13 47 -63 106 -106 123 -41 18 -139
17 -178 0z m163 -68 c33 -31 52 -78 52 -133 0 -120 -91 -196 -180 -150 -98 51
-98 243 1 297 42 24 92 18 127 -14z"/>
<path d="M6679 670 c-105 -55 -141 -194 -81 -311 59 -117 212 -143 312 -53 52
47 74 106 68 186 -6 84 -31 134 -87 169 -38 25 -55 29 -110 29 -45 -1 -78 -7
-102 -20z m147 -46 c97 -46 99 -250 4 -299 -90 -47 -180 25 -180 144 0 58 13
97 43 130 40 43 80 50 133 25z"/>
<path d="M8242 675 c-28 -12 -32 -18 -26 -37 3 -13 7 -24 8 -25 1 -1 20 4 41
12 52 18 89 18 124 0 31 -15 41 -33 41 -69 0 -21 -6 -24 -59 -29 -122 -11
-191 -66 -191 -154 0 -106 124 -156 223 -89 l35 24 6 -24 c5 -19 13 -24 39
-24 l32 0 -5 167 c-5 184 -14 213 -70 247 -35 20 -152 21 -198 1z m196 -252
c-4 -48 -10 -61 -37 -85 -36 -32 -84 -37 -119 -12 -16 11 -22 25 -22 54 0 44
27 77 70 86 14 3 30 7 35 9 6 2 25 4 44 4 l33 1 -4 -57z"/>
<path d="M8628 683 c-2 -5 -2 -101 0 -215 l3 -208 35 0 34 0 0 136 c0 105 4
144 16 170 26 55 95 80 146 53 37 -20 48 -69 48 -219 l0 -140 41 0 41 0 -4
163 c-3 130 -7 168 -21 195 -25 46 -72 72 -130 72 -54 0 -79 -10 -119 -48
l-28 -26 0 37 c0 34 -2 37 -29 37 -17 0 -31 -3 -33 -7z"/>
<path d="M9640 677 c-40 -20 -73 -76 -66 -116 7 -46 40 -78 112 -111 34 -15
64 -35 68 -45 29 -76 -46 -120 -140 -80 -34 14 -35 14 -44 -11 -14 -35 -8 -40
50 -54 74 -18 134 -6 178 35 33 30 37 39 37 84 0 62 -17 81 -113 131 -59 31
-67 39 -70 67 -3 25 2 35 23 49 24 16 53 16 111 -1 28 -9 42 34 17 53 -22 16
-131 15 -163 -1z"/>
</g>
</svg>
